<?xml version="1.0" encoding="UTF-8" standalone="no"?>
<svg xmlns:dc="http://purl.org/dc/elements/1.1/" xmlns:cc="http://creativecommons.org/ns#" xmlns:rdf="http://www.w3.org/1999/02/22-rdf-syntax-ns#" xmlns:svg="http://www.w3.org/2000/svg" xmlns="http://www.w3.org/2000/svg" xmlns:sodipodi="http://sodipodi.sourceforge.net/DTD/sodipodi-0.dtd" xmlns:inkscape="http://www.inkscape.org/namespaces/inkscape" inkscape:version="1.0 (4035a4fb49, 2020-05-01)" sodipodi:docname="lotofacil.svg" viewBox="0 0 163.12799 32.901333" height="32.901333" width="163.12799" xml:space="preserve" id="svg2" version="1.1"><metadata id="metadata8"><rdf:RDF><cc:Work rdf:about=""><dc:format>image/svg+xml</dc:format><dc:type rdf:resource="http://purl.org/dc/dcmitype/StillImage"/><dc:title/></cc:Work></rdf:RDF></metadata><defs id="defs6"><clipPath id="clipPath20" clipPathUnits="userSpaceOnUse"><path inkscape:connector-curvature="0" id="path18" d="M 0,708.661 H 1275.59 V 0 H 0 Z"/></clipPath><clipPath id="clipPath58" clipPathUnits="userSpaceOnUse"><path inkscape:connector-curvature="0" id="path56" d="m 141.733,0 h 1105.51 V 708.661 H 141.733 Z"/></clipPath><clipPath id="clipPath132" clipPathUnits="userSpaceOnUse"><path inkscape:connector-curvature="0" id="path130" d="m 141.733,0 h 1105.51 V 708.661 H 141.733 Z"/></clipPath><clipPath id="clipPath750" clipPathUnits="userSpaceOnUse"><path inkscape:connector-curvature="0" id="path748" d="m 141.733,0 h 1105.51 V 708.661 H 141.733 Z"/></clipPath><clipPath id="clipPath1006" clipPathUnits="userSpaceOnUse"><path inkscape:connector-curvature="0" id="path1004" d="m 141.733,0 h 1105.51 V 708.661 H 141.733 Z"/></clipPath><clipPath id="clipPath1042" clipPathUnits="userSpaceOnUse"><path inkscape:connector-curvature="0" id="path1040" d="M 815.478,158.644 H 1044.15 V -71.1718 H 815.478 Z"/></clipPath><clipPath id="clipPath1046" clipPathUnits="userSpaceOnUse"><path inkscape:connector-curvature="0" id="path1044" d="m 815.478,-71.172 h 228.674 V 158.644 H 815.478 Z"/></clipPath><clipPath id="clipPath1092" clipPathUnits="userSpaceOnUse"><path inkscape:connector-curvature="0" id="path1090" d="m 1017.525,444.359 h 47.65 v 79.37 h -47.65 z"/></clipPath><clipPath id="clipPath1232" clipPathUnits="userSpaceOnUse"><path inkscape:connector-curvature="0" id="path1230" d="m 141.733,0 h 1105.51 V 708.661 H 141.733 Z"/></clipPath><clipPath id="clipPath1250" clipPathUnits="userSpaceOnUse"><path inkscape:connector-curvature="0" id="path1248" d="m 141.733,0 h 1105.51 V 708.661 H 141.733 Z"/></clipPath><clipPath id="clipPath1280" clipPathUnits="userSpaceOnUse"><path inkscape:connector-curvature="0" id="path1278" d="m 141.733,0 h 1105.51 V 708.661 H 141.733 Z"/></clipPath><clipPath id="clipPath1336" clipPathUnits="userSpaceOnUse"><path inkscape:connector-curvature="0" id="path1334" d="m 141.733,0 h 1105.51 V 708.661 H 141.733 Z"/></clipPath><clipPath id="clipPath1362" clipPathUnits="userSpaceOnUse"><path inkscape:connector-curvature="0" id="path1360" d="m 141.733,0 h 1105.51 V 708.661 H 141.733 Z"/></clipPath><clipPath id="clipPath1382" clipPathUnits="userSpaceOnUse"><path inkscape:connector-curvature="0" id="path1380" d="m 141.733,0 h 1105.51 V 708.661 H 141.733 Z"/></clipPath><clipPath id="clipPath1406" clipPathUnits="userSpaceOnUse"><path inkscape:connector-curvature="0" id="path1404" d="m 141.733,0 h 1105.51 V 708.661 H 141.733 Z"/></clipPath><clipPath id="clipPath1426" clipPathUnits="userSpaceOnUse"><path inkscape:connector-curvature="0" id="path1424" d="m 141.733,0 h 1105.51 V 708.661 H 141.733 Z"/></clipPath><clipPath id="clipPath1452" clipPathUnits="userSpaceOnUse"><path inkscape:connector-curvature="0" id="path1450" d="m 141.733,0 h 1105.51 V 708.661 H 141.733 Z"/></clipPath><clipPath id="clipPath1484" clipPathUnits="userSpaceOnUse"><path inkscape:connector-curvature="0" id="path1482" d="m 141.733,0 h 1105.51 V 708.661 H 141.733 Z"/></clipPath><clipPath id="clipPath1500" clipPathUnits="userSpaceOnUse"><path inkscape:connector-curvature="0" id="path1498" d="m 141.733,0 h 1105.51 V 708.661 H 141.733 Z"/></clipPath><clipPath id="clipPath1522" clipPathUnits="userSpaceOnUse"><path inkscape:connector-curvature="0" id="path1520" d="m 141.733,0 h 1105.51 V 708.661 H 141.733 Z"/></clipPath><clipPath id="clipPath1550" clipPathUnits="userSpaceOnUse"><path inkscape:connector-curvature="0" id="path1548" d="m 141.733,0 h 1105.51 V 708.661 H 141.733 Z"/></clipPath><clipPath id="clipPath1592" clipPathUnits="userSpaceOnUse"><path inkscape:connector-curvature="0" id="path1590" d="m 141.733,0 h 1105.51 V 708.661 H 141.733 Z"/></clipPath><clipPath id="clipPath1624" clipPathUnits="userSpaceOnUse"><path inkscape:connector-curvature="0" id="path1622" d="m 141.733,0 h 1105.51 V 708.661 H 141.733 Z"/></clipPath><clipPath id="clipPath1640" clipPathUnits="userSpaceOnUse"><path inkscape:connector-curvature="0" id="path1638" d="m 141.733,0 h 1105.51 V 708.661 H 141.733 Z"/></clipPath><clipPath id="clipPath1668" clipPathUnits="userSpaceOnUse"><path inkscape:connector-curvature="0" id="path1666" d="m 141.733,0 h 1105.51 V 708.661 H 141.733 Z"/></clipPath><clipPath id="clipPath1696" clipPathUnits="userSpaceOnUse"><path inkscape:connector-curvature="0" id="path1694" d="m 141.733,0 h 1105.51 V 708.661 H 141.733 Z"/></clipPath><clipPath id="clipPath1722" clipPathUnits="userSpaceOnUse"><path inkscape:connector-curvature="0" id="path1720" d="m 141.733,0 h 1105.51 V 708.661 H 141.733 Z"/></clipPath><clipPath id="clipPath1752" clipPathUnits="userSpaceOnUse"><path inkscape:connector-curvature="0" id="path1750" d="m 141.733,0 h 1105.51 V 708.661 H 141.733 Z"/></clipPath><clipPath id="clipPath1808" clipPathUnits="userSpaceOnUse"><path inkscape:connector-curvature="0" id="path1806" d="m 141.733,0 h 1105.51 V 708.661 H 141.733 Z"/></clipPath><clipPath id="clipPath1830" clipPathUnits="userSpaceOnUse"><path inkscape:connector-curvature="0" id="path1828" d="m 141.733,0 h 1105.51 V 708.661 H 141.733 Z"/></clipPath><clipPath id="clipPath1874" clipPathUnits="userSpaceOnUse"><path inkscape:connector-curvature="0" id="path1872" d="m 141.733,0 h 1105.51 V 708.661 H 141.733 Z"/></clipPath></defs><sodipodi:namedview inkscape:document-rotation="0" inkscape:current-layer="g10" inkscape:window-maximized="1" inkscape:window-y="-8" inkscape:window-x="-8" inkscape:cy="33.376841" inkscape:cx="81.54666" inkscape:zoom="256" fit-margin-bottom="0" fit-margin-right="0" fit-margin-left="0" fit-margin-top="0" showgrid="false" id="namedview4" inkscape:window-height="705" inkscape:window-width="1366" inkscape:pageshadow="2" inkscape:pageopacity="0" guidetolerance="10" gridtolerance="10" objecttolerance="10" borderopacity="1" bordercolor="#666666" pagecolor="#ffffff"/><g transform="matrix(1.3333333,0,0,-1.3333333,-605.29424,356.0644)" inkscape:label="loterias-logo" inkscape:groupmode="layer" id="g10"><path inkscape:connector-curvature="0" id="path1354" style="fill:#a7348b;fill-opacity:1;fill-rule:nonzero;stroke:none;stroke-width:1.0003" d="m 453.97069,267.04831 h 122.346 v -24.69065 h -122.346 z"/><g transform="translate(-497.62031,164.70531)" id="g1356"><g clip-path="url(#clipPath1362)" id="g1358"><g transform="translate(999.9292,91.6339)" id="g1364"><path inkscape:connector-curvature="0" id="path1366" style="fill:#ffffff;fill-opacity:1;fill-rule:nonzero;stroke:none" d="m 0,0 c -0.21,-0.578 -0.369,-1.261 -0.473,-2.05 -0.157,-0.788 -0.21,-1.576 -0.21,-2.258 0,-0.473 0.053,-0.789 0.21,-1 0.104,-0.209 0.316,-0.315 0.579,-0.315 0.648,0 0.962,0.695 1.156,1.209 0.157,0.577 0.314,1.208 0.42,1.996 0.157,0.788 0.21,1.524 0.21,2.26 0,0.473 -0.106,0.789 -0.21,1.051 C 1.576,1.103 1.366,1.209 1.156,1.209 0.485,1.209 0.149,0.59 0,0 m -0.263,-8.724 c -1.156,0 -2.155,0.421 -2.838,1.262 -0.735,0.893 -1.102,2.049 -1.102,3.467 0,1.157 0.157,2.26 0.472,3.364 0.264,1.103 0.683,2.049 1.209,2.785 0.524,0.683 1.103,1.261 1.733,1.575 0.628,0.394 1.517,0.579 2.259,0.579 1.211,0 2.208,-0.472 2.89,-1.313 0.736,-0.841 1.052,-1.944 1.052,-3.416 0,-1.156 -0.157,-2.312 -0.42,-3.363 C 4.676,-4.888 4.257,-5.832 3.731,-6.569 3.258,-7.305 2.681,-7.83 1.998,-8.198 1.276,-8.559 0.536,-8.724 -0.263,-8.724"/></g></g></g><g transform="translate(491.06439,247.87821)" id="g1368"><path inkscape:connector-curvature="0" id="path1370" style="fill:#ffffff;fill-opacity:1;fill-rule:nonzero;stroke:none" d="M 0,0 1.996,12.506 H 5.463 L 3.994,3.101 H 6.568 L 6.095,0 Z"/></g><g transform="translate(516.23409,257.23191)" id="g1372"><path inkscape:connector-curvature="0" id="path1374" style="fill:#ffffff;fill-opacity:1;fill-rule:nonzero;stroke:none" d="M 0,0 H -2.051 L -3.574,-9.354 H -7.041 L -5.571,0 h -2.102 l 0.526,3.153 h 7.673 z"/></g><g transform="translate(-497.62031,164.70531)" id="g1376"><g clip-path="url(#clipPath1382)" id="g1378"><g transform="translate(1023.1542,87.8503)" id="g1384"><path inkscape:connector-curvature="0" id="path1386" style="fill:#ffffff;fill-opacity:1;fill-rule:nonzero;stroke:none" d="m 0,0 c -0.316,-1.104 -0.734,-2.049 -1.26,-2.786 -0.473,-0.736 -1.052,-1.261 -1.735,-1.628 -0.721,-0.361 -1.459,-0.526 -2.258,-0.526 -1.209,0 -2.155,0.421 -2.838,1.261 -0.42,0.526 -0.736,1.103 -0.895,1.786 -0.157,0.473 -0.21,1.052 -0.21,1.682 0,2.083 0.459,4.434 1.682,6.148 0.473,0.683 1.105,1.262 1.735,1.576 0.628,0.393 1.516,0.579 2.261,0.579 1.206,0 2.152,-0.473 2.888,-1.314 C -0.104,6.147 0.212,5.36 0.369,4.36 0.42,4.045 0.42,3.73 0.42,3.362 0.42,2.223 0.279,1.108 0,0 m -3.782,-0.631 c 0.208,0.578 0.367,1.209 0.471,1.997 0.106,0.788 0.159,1.524 0.159,2.259 0,0.473 -0.053,0.789 -0.159,1.051 -0.104,0.21 -0.314,0.316 -0.576,0.316 -0.675,0 -0.955,-0.669 -1.156,-1.208 -0.159,-0.579 -0.316,-1.261 -0.473,-2.05 -0.106,-0.788 -0.157,-1.576 -0.157,-2.259 0,-0.473 0.051,-0.789 0.208,-1 0.106,-0.209 0.316,-0.315 0.579,-0.315 0.64,0 0.972,0.685 1.104,1.209"/></g></g></g><g transform="translate(533.52279,257.33701)" id="g1388"><path inkscape:connector-curvature="0" id="path1390" style="fill:#ffffff;fill-opacity:1;fill-rule:nonzero;stroke:none" d="M 0,0 0.524,3.048 H -5.728 L -7.675,-9.459 h 0.055 3.415 l 0.735,4.73 h 2.365 l 0.473,2.942 H -2.997 L -2.683,0 Z"/></g><g transform="translate(539.30209,261.59331)" id="g1392"><path inkscape:connector-curvature="0" id="path1394" style="fill:#ffffff;fill-opacity:1;fill-rule:nonzero;stroke:none" d="m 0,0 h -1.366 l 0.997,2.68 h 2.261 z"/></g><g transform="translate(538.14619,252.23961)" id="g1396"><path inkscape:connector-curvature="0" id="path1398" style="fill:#ffffff;fill-opacity:1;fill-rule:nonzero;stroke:none" d="M 0,0 0.051,4.624 -1.421,0 Z M -6.252,-4.361 -1.576,8.145 H 2.575 L 3.467,-4.361 h -3.573 l 0.053,1.839 h -2.102 l -0.526,-1.839 z"/></g><g transform="translate(-497.62031,164.70531)" id="g1400"><g clip-path="url(#clipPath1406)" id="g1402"><g transform="translate(1047.6409,92.4747)" id="g1408"><path inkscape:connector-curvature="0" id="path1410" style="fill:#ffffff;fill-opacity:1;fill-rule:nonzero;stroke:none" d="m 0,0 c -0.251,0.168 -0.795,0.314 -1.103,0.314 -0.84,0 -1.472,-0.42 -1.998,-1.208 -0.473,-0.788 -0.733,-1.787 -0.733,-3.1 0,-0.841 0.157,-1.418 0.472,-1.839 0.504,-0.809 1.65,-0.611 2.416,-0.421 l -0.577,-2.995 c -0.487,-0.24 -1.196,-0.316 -1.735,-0.316 -1.418,0 -2.468,0.421 -3.204,1.262 -0.789,0.841 -1.158,1.998 -1.158,3.574 0,2.468 0.579,4.413 1.735,5.937 1.105,1.471 2.627,2.26 4.466,2.26 0.652,0 1.376,-0.16 1.996,-0.367 z"/></g></g></g><g transform="translate(553.22719,247.87821)" id="g1412"><path inkscape:connector-curvature="0" id="path1414" style="fill:#ffffff;fill-opacity:1;fill-rule:nonzero;stroke:none" d="m 0,0 h -3.521 l 1.994,12.506 h 3.523 z"/></g><g transform="translate(556.74769,260.38451)" id="g1416"><path inkscape:connector-curvature="0" id="path1418" style="fill:#ffffff;fill-opacity:1;fill-rule:nonzero;stroke:none" d="M 0,0 H 3.518 L 1.994,-9.406 H 4.57 l -0.473,-3.1 h -6.095 z"/></g><g transform="translate(-497.62031,164.70531)" id="g1420"><g clip-path="url(#clipPath1426)" id="g1422"><g transform="translate(974.3437,96.4314)" id="g1428"><path inkscape:connector-curvature="0" id="path1430" style="fill:#ffffff;fill-opacity:1;fill-rule:nonzero;stroke:none" d="m 0,0 c 0,1.537 -1.291,2.828 -2.828,2.828 -1.539,0 -2.83,-1.291 -2.83,-2.828 v -0.308 h -0.306 c -1.539,0 -2.829,-1.291 -2.829,-2.89 0,-1.537 1.29,-2.829 2.829,-2.829 H 0 Z"/></g><g transform="translate(974.3437,83.5797)" id="g1432"><path inkscape:connector-curvature="0" id="path1434" style="fill:#e4b9d7;fill-opacity:1;fill-rule:nonzero;stroke:none" d="m 0,0 c 0,-1.538 -1.291,-2.829 -2.828,-2.829 -1.539,0 -2.83,1.291 -2.83,2.829 v 0.307 h -0.306 c -1.539,0 -2.829,1.292 -2.829,2.829 0,1.537 1.29,2.829 2.829,2.829 H 0 Z"/></g><g transform="translate(975.2662,96.4314)" id="g1436"><path inkscape:connector-curvature="0" id="path1438" style="fill:#e4b9d7;fill-opacity:1;fill-rule:nonzero;stroke:none" d="M 0,0 C 0,1.537 1.229,2.828 2.828,2.828 4.364,2.828 5.657,1.537 5.657,0 v -0.308 h 0.308 c 1.536,0 2.826,-1.291 2.826,-2.89 0,-1.537 -1.29,-2.829 -2.826,-2.829 H 0 Z"/></g><g transform="translate(975.2662,83.5797)" id="g1440"><path inkscape:connector-curvature="0" id="path1442" style="fill:#ffffff;fill-opacity:1;fill-rule:nonzero;stroke:none" d="m 0,0 c 0,-1.538 1.229,-2.829 2.828,-2.829 1.536,0 2.829,1.291 2.829,2.829 v 0.307 h 0.308 c 1.536,0 2.826,1.292 2.826,2.829 0,1.537 -1.29,2.829 -2.826,2.829 H 0 Z"/></g></g></g></g></svg>